ffmpeg version 3.4.8-0ubuntu0.2 Copyright (c) 2000-2020 the FFmpeg developers
  built with gcc 7 (Ubuntu 7.5.0-3ubuntu1~18.04)
  configuration: --prefix=/usr --extra-version=0ubuntu0.2 --toolchain=hardened --libdir=/usr/lib/x86_64-linux-gnu --incdir=/usr/include/x86_64-linux-gnu --enable-gpl --disable-stripping --enable-avresample --enable-avisynth --enable-gnutls --enable-ladspa --enable-libass --enable-libbluray --enable-libbs2b --enable-libcaca --enable-libcdio --enable-libflite --enable-libfontconfig --enable-libfreetype --enable-libfribidi --enable-libgme --enable-libgsm --enable-libmp3lame --enable-libmysofa --enable-libopenjpeg --enable-libopenmpt --enable-libopus --enable-libpulse --enable-librubberband --enable-librsvg --enable-libshine --enable-libsnappy --enable-libsoxr --enable-libspeex --enable-libssh --enable-libtheora --enable-libtwolame --enable-libvorbis --enable-libvpx --enable-libwavpack --enable-libwebp --enable-libx265 --enable-libxml2 --enable-libxvid --enable-libzmq --enable-libzvbi --enable-omx --enable-openal --enable-opengl --enable-sdl2 --enable-libdc1394 --enable-libdrm --enable-libiec61883 --enable-chromaprint --enable-frei0r --enable-libopencv --enable-libx264 --enable-shared
  libavutil      55. 78.100 / 55. 78.100
  libavcodec     57.107.100 / 57.107.100
  libavformat    57. 83.100 / 57. 83.100
  libavdevice    57. 10.100 / 57. 10.100
  libavfilter     6.107.100 /  6.107.100
  libavresample   3.  7.  0 /  3.  7.  0
  libswscale      4.  8.100 /  4.  8.100
  libswresample   2.  9.100 /  2.  9.100
  libpostproc    54.  7.100 / 54.  7.100
[h264 @ 0x55caa09817a0] top block unavailable for requested intra mode -1
[h264 @ 0x55caa09817a0] error while decoding MB 0 0, bytestream 104
Input #0, mov,mp4,m4a,3gp,3g2,mj2, from '/root/results/2020-11-30_15:09:44/cases/141/test-small_movie-141.mp4':
  Metadata:
    major_brand     : mp42
    minor_version   : 19529854
    compatible_brands: mp42isom
    creation_time   : 2014-11-14T07:34:24.000000Z
  Duration: 00:00:01.00, start: 0.083333, bitrate: 10 kb/s
    Stream #0:0(eng): Video: h264 (High) (avc1 / 0x31637661), yuv420p, 48x3776, 3 kb/s, 12 fps, 12 tbr, 12 tbn, 24 tbc (default)
    Metadata:
      creation_time   : 2014-11-14T07:34:24.000000Z
      handler_name    : Video Media Handler
      encoder         : AVC Coding
Stream mapping:
  Stream #0:0 -> #0:0 (h264 (native) -> mpeg4 (native))
Press [q] to stop, [?] for help
[h264 @ 0x55caa09882e0] top block unavailable for requested intra mode -1
[h264 @ 0x55caa09882e0] error while decoding MB 0 0, bytestream 104
[h264 @ 0x55caa09a0660] reference count overflow
[h264 @ 0x55caa09a0660] decode_slice_header error
[h264 @ 0x55caa09f6dc0] This stream was generated by a broken encoder, invalid 8x8 inference
[h264 @ 0x55caa09f6dc0] decode_slice_header error
[h264 @ 0x55caa09fd520] This stream was generated by a broken encoder, invalid 8x8 inference
[h264 @ 0x55caa09fd520] decode_slice_header error
[h264 @ 0x55caa0a75be0] reference picture missing during reorder
[h264 @ 0x55caa0a75be0] Missing reference picture, default is 65534
[h264 @ 0x55caa0a75be0] decode_slice_header error
[h264 @ 0x55caa0a91dc0] This stream was generated by a broken encoder, invalid 8x8 inference
[h264 @ 0x55caa0a91dc0] decode_slice_header error
[h264 @ 0x55caa0a91dc0] no frame!
[h264 @ 0x55caa0aadfa0] This stream was generated by a broken encoder, invalid 8x8 inference
[h264 @ 0x55caa0aadfa0] decode_slice_header error
[h264 @ 0x55caa0aadfa0] no frame!
[h264 @ 0x55caa0aca300] This stream was generated by a broken encoder, invalid 8x8 inference
[h264 @ 0x55caa0aca300] decode_slice_header error
[h264 @ 0x55caa0aca300] no frame!
[h264 @ 0x55caa0ae6660] error while decoding MB 0 0, bytestream -19
[h264 @ 0x55caa0b029c0] number of reference frames (1+3) exceeds max (3; probably corrupt input), discarding one
[h264 @ 0x55caa0ae6660] concealing 708 DC, 708 AC, 708 MV errors in P frame
[h264 @ 0x55caa0b029c0] This stream was generated by a broken encoder, invalid 8x8 inference
[h264 @ 0x55caa0b029c0] decode_slice_header error
[h264 @ 0x55caa0b029c0] no frame!
[h264 @ 0x55caa0b1ec80] This stream was generated by a broken encoder, invalid 8x8 inference
[h264 @ 0x55caa0b1ec80] decode_slice_header error
[h264 @ 0x55caa0b1ec80] no frame!
Output #0, avi, to '/root/results/2020-11-30_15:09:44/cases/141/output-small_movie-141.avi':
  Metadata:
    major_brand     : mp42
    minor_version   : 19529854
    compatible_brands: mp42isom
    ISFT            : Lavf57.83.100
    Stream #0:0(eng): Video: mpeg4 (FMP4 / 0x34504D46), yuv420p, 48x3776, q=2-31, 200 kb/s, 12 fps, 12 tbn, 12 tbc (default)
    Metadata:
      creation_time   : 2014-11-14T07:34:24.000000Z
      handler_name    : Video Media Handler
      encoder         : Lavc57.107.100 mpeg4
    Side data:
      cpb: bitrate max/min/avg: 0/0/200000 buffer size: 0 vbv_delay: -1
Error while decoding stream #0:0: Invalid data found when processing input
    Last message repeated 4 times
frame=    2 fps=0.0 q=1.6 Lsize=      10kB time=00:00:00.91 bitrate=  89.5kbits/s speed=89.8x    
video:4kB audio:0kB subtitle:0kB other streams:0kB global headers:0kB muxing overhead: 138.170425%
Conversion failed!
